<svg xmlns="http://www.w3.org/2000/svg" viewBox="0 0 128 128" width="128" height="128">
  <defs>
    <linearGradient id="bgGrad" x1="0%" y1="0%" x2="100%" y2="100%">
      <stop offset="0%" stop-color="#0f172a" />
      <stop offset="50%" stop-color="#1e1b4b" />
      <stop offset="100%" stop-color="#020617" />
    </linearGradient>
    <linearGradient id="glowBorder" x1="0%" y1="0%" x2="100%" y2="100%">
      <stop offset="0%" stop-color="#f59e0b" />
      <stop offset="50%" stop-color="#8b5cf6" />
      <stop offset="100%" stop-color="#06b6d4" />
    </linearGradient>
    <linearGradient id="faceGrad" x1="0%" y1="0%" x2="100%" y2="100%">
      <stop offset="0%" stop-color="#fbbf24" />
      <stop offset="100%" stop-color="#f59e0b" />
    </linearGradient>
    <filter id="glow" x="-20%" y="-20%" width="140%" height="140%">
      <feGaussianBlur stdDeviation="4" result="blur" />
      <feComposite in="SourceGraphic" in2="blur" operator="over" />
    </filter>
  </defs>

  <rect x="4" y="4" width="120" height="120" rx="28" fill="url(#bgGrad)" stroke="url(#glowBorder)" stroke-width="4" filter="url(#glow)" />
  <circle cx="64" cy="64" r="42" fill="#8b5cf6" opacity="0.15" />
  <circle cx="64" cy="60" r="32" fill="url(#faceGrad)" />
  <ellipse cx="52" cy="54" rx="4" ry="5" fill="#1e1b4b" />
  <ellipse cx="76" cy="54" rx="4" ry="5" fill="#1e1b4b" />
  <circle cx="53" cy="52" r="1.5" fill="#ffffff" />
  <circle cx="77" cy="52" r="1.5" fill="#ffffff" />
  <path d="M 49 66 Q 64 80 79 66" fill="none" stroke="#1e1b4b" stroke-width="4" stroke-linecap="round" />
  <circle cx="45" cy="63" r="5" fill="#f87171" opacity="0.6" />
  <circle cx="83" cy="63" r="5" fill="#f87171" opacity="0.6" />
  <path d="M 32 78 C 30 70 38 64 45 68 C 50 71 52 78 48 84 C 44 90 34 86 32 78 Z" fill="#fbbf24" stroke="#d97706" stroke-width="1.5" />
  <path d="M 96 78 C 98 70 90 64 83 68 C 78 71 76 78 80 84 C 84 90 94 86 96 78 Z" fill="#fbbf24" stroke="#d97706" stroke-width="1.5" />
  <path d="M 98 22 Q 98 32 108 32 Q 98 32 98 42 Q 98 32 88 32 Q 98 32 98 22 Z" fill="#38bdf8" />
  <circle cx="108" cy="20" r="2.5" fill="#a855f7" />
</svg>
